<mxfile host="app.diagrams.net" modified="2024-05-23T06:37:08.560Z" agent="Mozilla/5.0 (Macintosh; Intel Mac OS X 10_15_7) AppleWebKit/605.1.15 (KHTML, like Gecko) Version/17.5 Safari/605.1.15" etag="bsdOgtnOh7IzdRBRF9Pl" version="24.4.6" type="github">
  <diagram name="Page-1" id="a8SS4gL5IvldsTGaEslM">
    <mxGraphModel dx="2152" dy="1382" grid="1" gridSize="10" guides="1" tooltips="1" connect="1" arrows="1" fold="1" page="1" pageScale="1" pageWidth="850" pageHeight="1100" math="0" shadow="0">
      <root>
        <mxCell id="0" />
        <mxCell id="1" parent="0" />
        <mxCell id="oLIfNnZXEmRKZviw7tP8-33" value="" style="childLayout=tableLayout;recursiveResize=0;shadow=0;fillColor=none;pointerEvents=1;strokeColor=inherit;align=center;verticalAlign=middle;fontFamily=Helvetica;fontSize=16;fontColor=default;" vertex="1" parent="1">
          <mxGeometry x="80" y="280" width="370" height="133" as="geometry" />
        </mxCell>
        <mxCell id="oLIfNnZXEmRKZviw7tP8-34" value="" style="shape=tableRow;horizontal=0;startSize=0;swimlaneHead=0;swimlaneBody=0;top=0;left=0;bottom=0;right=0;dropTarget=0;collapsible=0;recursiveResize=0;expand=0;fontStyle=0;fillColor=none;strokeColor=inherit;pointerEvents=1;align=center;verticalAlign=middle;fontFamily=Helvetica;fontSize=16;fontColor=default;" vertex="1" parent="oLIfNnZXEmRKZviw7tP8-33">
          <mxGeometry width="370" height="40" as="geometry" />
        </mxCell>
        <mxCell id="oLIfNnZXEmRKZviw7tP8-35" value="StudentName" style="connectable=0;recursiveResize=0;strokeColor=inherit;fillColor=none;align=center;whiteSpace=wrap;html=1;pointerEvents=1;verticalAlign=middle;fontFamily=Helvetica;fontSize=16;fontColor=default;" vertex="1" parent="oLIfNnZXEmRKZviw7tP8-34">
          <mxGeometry width="124" height="40" as="geometry">
            <mxRectangle width="124" height="40" as="alternateBounds" />
          </mxGeometry>
        </mxCell>
        <mxCell id="oLIfNnZXEmRKZviw7tP8-36" value="Address" style="connectable=0;recursiveResize=0;strokeColor=inherit;fillColor=none;align=center;whiteSpace=wrap;html=1;pointerEvents=1;verticalAlign=middle;fontFamily=Helvetica;fontSize=16;fontColor=default;" vertex="1" parent="oLIfNnZXEmRKZviw7tP8-34">
          <mxGeometry x="124" width="122" height="40" as="geometry">
            <mxRectangle width="122" height="40" as="alternateBounds" />
          </mxGeometry>
        </mxCell>
        <mxCell id="oLIfNnZXEmRKZviw7tP8-37" value="Value 3" style="connectable=0;recursiveResize=0;strokeColor=inherit;fillColor=none;align=center;whiteSpace=wrap;html=1;pointerEvents=1;verticalAlign=middle;fontFamily=Helvetica;fontSize=16;fontColor=default;" vertex="1" parent="oLIfNnZXEmRKZviw7tP8-34">
          <mxGeometry x="246" width="124" height="40" as="geometry">
            <mxRectangle width="124" height="40" as="alternateBounds" />
          </mxGeometry>
        </mxCell>
        <mxCell id="oLIfNnZXEmRKZviw7tP8-38" style="shape=tableRow;horizontal=0;startSize=0;swimlaneHead=0;swimlaneBody=0;top=0;left=0;bottom=0;right=0;dropTarget=0;collapsible=0;recursiveResize=0;expand=0;fontStyle=0;fillColor=none;strokeColor=inherit;pointerEvents=1;align=center;verticalAlign=middle;fontFamily=Helvetica;fontSize=16;fontColor=default;" vertex="1" parent="oLIfNnZXEmRKZviw7tP8-33">
          <mxGeometry y="40" width="370" height="46" as="geometry" />
        </mxCell>
        <mxCell id="oLIfNnZXEmRKZviw7tP8-39" value="Value 4" style="connectable=0;recursiveResize=0;strokeColor=inherit;fillColor=none;align=center;whiteSpace=wrap;html=1;pointerEvents=1;verticalAlign=middle;fontFamily=Helvetica;fontSize=16;fontColor=default;" vertex="1" parent="oLIfNnZXEmRKZviw7tP8-38">
          <mxGeometry width="124" height="46" as="geometry">
            <mxRectangle width="124" height="46" as="alternateBounds" />
          </mxGeometry>
        </mxCell>
        <mxCell id="oLIfNnZXEmRKZviw7tP8-40" value="Value 5" style="connectable=0;recursiveResize=0;strokeColor=inherit;fillColor=none;align=center;whiteSpace=wrap;html=1;pointerEvents=1;verticalAlign=middle;fontFamily=Helvetica;fontSize=16;fontColor=default;" vertex="1" parent="oLIfNnZXEmRKZviw7tP8-38">
          <mxGeometry x="124" width="122" height="46" as="geometry">
            <mxRectangle width="122" height="46" as="alternateBounds" />
          </mxGeometry>
        </mxCell>
        <mxCell id="oLIfNnZXEmRKZviw7tP8-41" value="Value 6" style="connectable=0;recursiveResize=0;strokeColor=inherit;fillColor=none;align=center;whiteSpace=wrap;html=1;pointerEvents=1;verticalAlign=middle;fontFamily=Helvetica;fontSize=16;fontColor=default;" vertex="1" parent="oLIfNnZXEmRKZviw7tP8-38">
          <mxGeometry x="246" width="124" height="46" as="geometry">
            <mxRectangle width="124" height="46" as="alternateBounds" />
          </mxGeometry>
        </mxCell>
        <mxCell id="oLIfNnZXEmRKZviw7tP8-42" style="shape=tableRow;horizontal=0;startSize=0;swimlaneHead=0;swimlaneBody=0;top=0;left=0;bottom=0;right=0;dropTarget=0;collapsible=0;recursiveResize=0;expand=0;fontStyle=0;fillColor=none;strokeColor=inherit;pointerEvents=1;align=center;verticalAlign=middle;fontFamily=Helvetica;fontSize=16;fontColor=default;" vertex="1" parent="oLIfNnZXEmRKZviw7tP8-33">
          <mxGeometry y="86" width="370" height="47" as="geometry" />
        </mxCell>
        <mxCell id="oLIfNnZXEmRKZviw7tP8-43" value="Value 7" style="connectable=0;recursiveResize=0;strokeColor=inherit;fillColor=none;align=center;whiteSpace=wrap;html=1;pointerEvents=1;verticalAlign=middle;fontFamily=Helvetica;fontSize=16;fontColor=default;" vertex="1" parent="oLIfNnZXEmRKZviw7tP8-42">
          <mxGeometry width="124" height="47" as="geometry">
            <mxRectangle width="124" height="47" as="alternateBounds" />
          </mxGeometry>
        </mxCell>
        <mxCell id="oLIfNnZXEmRKZviw7tP8-44" value="Value 8" style="connectable=0;recursiveResize=0;strokeColor=inherit;fillColor=none;align=center;whiteSpace=wrap;html=1;pointerEvents=1;verticalAlign=middle;fontFamily=Helvetica;fontSize=16;fontColor=default;" vertex="1" parent="oLIfNnZXEmRKZviw7tP8-42">
          <mxGeometry x="124" width="122" height="47" as="geometry">
            <mxRectangle width="122" height="47" as="alternateBounds" />
          </mxGeometry>
        </mxCell>
        <mxCell id="oLIfNnZXEmRKZviw7tP8-45" value="Value 9" style="connectable=0;recursiveResize=0;strokeColor=inherit;fillColor=none;align=center;whiteSpace=wrap;html=1;pointerEvents=1;verticalAlign=middle;fontFamily=Helvetica;fontSize=16;fontColor=default;" vertex="1" parent="oLIfNnZXEmRKZviw7tP8-42">
          <mxGeometry x="246" width="124" height="47" as="geometry">
            <mxRectangle width="124" height="47" as="alternateBounds" />
          </mxGeometry>
        </mxCell>
      </root>
    </mxGraphModel>
  </diagram>
</mxfile>
